<svg width="32" height="32" fill="none" xmlns="http://www.w3.org/2000/svg"><g clip-path="url(#a)"><path d="M25.332 9.333H24.24l-2.267-6.24a2.678 2.678 0 0 0-2.506-1.76h-2.134c-.733 0-1.333.6-1.333 1.334 0 .733.6 1.333 1.333 1.333h2.134l1.946 5.333H15L14.519 8h.12c.733 0 1.333-.6 1.333-1.333 0-.734-.6-1.334-1.333-1.334h-3.973c-.734 0-1.334.6-1.334 1.334 0 .733.6 1.333 1.334 1.333h1l2.426 6.667H13.2c-.587-2.974-3.08-5.174-6.2-5.32-3.733-.187-7 2.92-7 6.653 0 3.733 2.933 6.667 6.667 6.667 3.28 0 5.933-2.254 6.533-5.334h5.6c.587 2.974 3.08 5.174 6.2 5.32 3.733.174 7-2.92 7-6.666 0-3.72-2.933-6.654-6.667-6.654ZM8 17.333h2.427c-.56 1.64-2.134 2.774-4.027 2.654-1.987-.12-3.64-1.8-3.733-3.8-.094-2.334 1.693-4.187 4-4.187a3.932 3.932 0 0 1 3.76 2.667H7.999c-.733 0-1.333.6-1.333 1.333s.6 1.333 1.333 1.333Zm10.8-2.666h-1.867L15.96 12h4.04a6.313 6.313 0 0 0-1.2 2.667ZM25.172 20c-2.053-.08-3.786-1.827-3.84-3.893-.026-1.28.52-2.4 1.4-3.147l.827 2.267a1.33 1.33 0 0 0 1.707.8 1.33 1.33 0 0 0 .8-1.707l-.84-2.307.013-.013a3.958 3.958 0 0 1 4.093 4c0 2.293-1.84 4.08-4.16 4Zm-10.506 6.667H9.332l8 4V28h5.334l-8-4v2.667Z" fill="url(#b)"/></g><defs><linearGradient id="b" x1="15.999" y1="1.333" x2="15.999" y2="30.667" gradientUnits="userSpaceOnUse"><stop stop-color="#FFBF00"/><stop offset="1" stop-color="#F2A60C"/></linearGradient><clipPath id="a"><path fill="#fff" d="M0 0h32v32H0z"/></clipPath></defs></svg>