<svg width="138" height="50" fill="none" xmlns="http://www.w3.org/2000/svg"><g clip-path="url(#a)"><path d="m24.733 10.784-4.57 28.298H13.6l1.667-10.218h-7.07L6.562 39.082H0l4.606-28.298h6.527L9.176 22.732h7.07l1.96-11.948h6.527Zm13.463 28.298.219-6.17h-6.056l-1.778 6.17h-6.926l9.32-28.298h11.966l.146 28.298h-6.89Zm-1.486-21.42-2.864 9.983h4.75l.398-9.982-2.284-.001Zm36.542-6.878-4.57 28.298h-6.564L57.55 23.598l-2.466 15.485h-6.566l4.606-28.299h6.745l4.498 14.464 2.355-14.464h6.53Zm15.314 0c3.167 0 5.428.865 6.781 2.594.992 1.31 1.486 2.948 1.486 4.913 0 .708-.06 1.454-.18 2.24l-1.414 8.765c-.484 2.96-1.669 5.332-3.554 7.114-1.887 1.782-4.328 2.672-7.327 2.672H73.805l4.607-28.298h10.154Zm-2.285 6.132h-2.357L81.349 32.95h3.445c1.136 0 2.019-.328 2.647-.982.654-.682 1.1-1.782 1.34-3.301l1.054-6.446c.091-.52.14-1.046.145-1.573 0-2.49-1.232-3.732-3.7-3.732Zm29.988 22.166H98.064l4.608-28.298h18.205l-1.016 6.132h-11.677l-.834 5.306h9.646l-1.014 6.13h-9.648l-.724 4.599h11.677l-1.018 6.131Zm20.715 0h-16.537l4.607-28.298h6.528l-3.59 22.167H138l-1.016 6.131Zm-64.042 5.036h63.086L134.058 50H70.972l1.97-5.882ZM6.9 0h69l-1.972 5.882h-69L6.9 0Z" fill="#9C9C9C"/></g><defs><clipPath id="a"><path fill="#fff" d="M0 0h138v50H0z"/></clipPath></defs></svg>