<svg width="195" height="34" fill="none" xmlns="http://www.w3.org/2000/svg"><g clip-path="url(#a)"><path d="M21.534 32.955a6.926 6.926 0 0 1-3.363-.769 6.847 6.847 0 0 1-2.561-2.29 11.543 11.543 0 0 1-7.432 3.06c-4.961 0-7.65-3.465-6.742-8.43.69-3.735 3.78-7.477 4.643-10.48-1.672-1.009-4.153-1.71-5.316.35L0 13.935c.609-2.258 2.08-3.76 4.206-3.76 2.127 0 3.698 1.25 5.725.1h1.617c-.863 4.497-3.044 8.095-4.207 14.393-.708 3.86.61 5.614 2.836 5.614a6.744 6.744 0 0 0 4.251-2.259 18.085 18.085 0 0 1-1.317-6.918c0-5.47 2.535-11.236 6.787-11.236 2.18 0 3.797 1.502 3.797 5.065 0 3.562-2.18 9.077-4.96 12.54.15.825.587 1.572 1.234 2.113.646.54 1.463.84 2.31.848 4.052 0 6.886-6.02 6.886-11.588s-2.434-5.317-2.225-7.197a1.8 1.8 0 0 1 .624-1.222c.362-.31.833-.465 1.31-.433 1.264 0 2.926 1.583 2.926 8.007 0 8.186-4.396 14.952-10.266 14.952Zm-.918-20.26c-1.263 0-2.481 4.615-2.635 9.383-.06 1.02-.04 2.042.054 3.06a23.842 23.842 0 0 0 3.398-10.284c-.009-1.62-.308-2.16-.818-2.16l.001.001Zm19.507 20.053a3.67 3.67 0 0 1-2.912-1.003 3.595 3.595 0 0 1-1.086-2.857c0-2.204 2.89-13.189 2.89-14.997 0-.854-.2-1.358-.963-1.358a4.414 4.414 0 0 0-2.281 1.106v-1.556a7.48 7.48 0 0 1 4.815-1.952 3.712 3.712 0 0 1 2.917 1.038c.38.372.674.822.861 1.32.187.496.262 1.027.22 1.555 0 2.204-2.889 13.144-2.889 14.943 0 .855.2 1.36.963 1.36a4.763 4.763 0 0 0 2.28-1.054v1.502a7.38 7.38 0 0 1-4.815 1.953ZM43.666 1a2.728 2.728 0 0 1 2.693 1.897c.117.376.15.772.097 1.162a3.443 3.443 0 0 1-1.116 2.158 3.507 3.507 0 0 1-2.273.901 2.75 2.75 0 0 1-2.111-.889 2.663 2.663 0 0 1-.678-2.17c.097-.832.494-1.6 1.115-2.158a3.51 3.51 0 0 1 2.273-.9Zm11.248 27.035c-.253 1.358-.1 2.303.864 2.303a4.563 4.563 0 0 0 2.28-1.053l.09 1.511a7.481 7.481 0 0 1-4.815 1.953c-3.143 0-4.36-2.258-3.896-5.065l3.089-17.408c1.026-5.812.671-6.577-2.473-6.577l.2-1.403 9.477-1.242-4.816 26.981Zm26.65-.046c-.255 1.36-.155 2.358.862 2.358a4.825 4.825 0 0 0 2.282-1.107v1.556a7.308 7.308 0 0 1-4.816 1.953 3.66 3.66 0 0 1-2.518-.766 3.591 3.591 0 0 1-1.335-2.248 8.258 8.258 0 0 1-2.862 2.371 8.342 8.342 0 0 1-3.625.886c-6.024 0-8.559-5.263-7.396-11.588 1.163-6.324 6.587-11.488 12.72-11.488a8.6 8.6 0 0 1 4.17.98l.155-.8c1.2-6.19.646-6.397-2.498-6.397l.154-1.403 9.521-1.242-4.815 26.936ZM75.03 12.182c-3.498 0-5.823 4.111-6.741 9.176-.963 5.317-.354 8.997 2.935 8.997 2.225 0 4.76-2.7 5.523-6.82L78.62 13.1a6.473 6.473 0 0 0-3.59-.918ZM97.573 33c-7.042 0-8.968-5.02-8.105-9.833l2.298-12.89c1.064-5.82.71-6.623-2.434-6.623l.199-1.403 9.504-1.197-1.926 10.931a8.542 8.542 0 0 1 5.316-2.06c6.132 0 9.013 5.164 7.904 11.488C109.221 27.737 103.579 33 97.573 33Zm3.289-20.69a4.883 4.883 0 0 0-2.83.973 4.803 4.803 0 0 0-1.713 2.435l-1.418 8.097c-.863 4.813.864 6.774 3.045 6.774 3.188 0 5.169-3.508 6.232-9.275.945-5.164.082-8.978-3.325-8.978l.009-.027Zm19.071 12.018c0 3.86 1.871 5.92 5.451 5.92 1.818 0 4.461-1.25 6.134-2.906l.708 1.601a13.103 13.103 0 0 1-4.245 2.968 13.2 13.2 0 0 1-5.077 1.098c-5.315 0-8.914-3.913-8.914-9.23 0-7.872 6.588-13.845 12.921-13.845 3.852 0 6.023 2.105 6.023 4.561-.044 3.814-3.697 8.097-13.001 9.833Zm6.532-12.09c-2.889 0-5.668 4.164-6.433 10.13 5.825-1.405 8.305-5.318 8.36-7.828-.009-1.403-.673-2.303-1.935-2.303h.008Zm27.14 20.511a3.663 3.663 0 0 1-2.518-.766 3.592 3.592 0 0 1-1.334-2.248 7.964 7.964 0 0 1-2.792 2.373 8.042 8.042 0 0 1-3.568.883c-5.924 0-8.459-5.262-7.269-11.587 1.19-6.324 6.523-11.48 12.675-11.48a9.654 9.654 0 0 1 3.797.757h5.779l-3.098 17.308c-.255 1.36-.155 2.358.863 2.358a4.827 4.827 0 0 0 2.281-1.107v1.556a7.311 7.311 0 0 1-4.816 1.953Zm-4.661-20.566c-3.398 0-5.778 4.111-6.688 9.176-.963 5.317-.299 8.997 2.726 8.997 2.327 0 4.816-2.807 5.525-6.82l1.872-10.435a5.918 5.918 0 0 0-3.426-.918h-.009Zm27.158 3.661c-1.372 0-1.727-1.052-2.126-2.159a2.473 2.473 0 0 0-.924-1.396 2.509 2.509 0 0 0-1.611-.493c-.75-.04-1.488.2-2.073.674-.58.47-.962 1.14-1.071 1.881-.154 1.36.863 2.51 2.789 4.165l2.58 2.105a6.562 6.562 0 0 1 2.153 2.8c.447 1.11.579 2.32.382 3.498-.654 3.76-3.797 6.072-8.005 6.072-5.07 0-8.304-2.96-7.95-4.966.083-.527.351-1.01.759-1.358.408-.35.929-.544 1.468-.549 1.317 0 1.816 1 2.225 2.303.263.75.767 1.392 1.436 1.828a3.661 3.661 0 0 0 2.262.583 3.192 3.192 0 0 0 2.173-.718 3.131 3.131 0 0 0 1.117-1.98c.2-1.8-.909-2.906-2.989-4.769l-2.535-2.204a6.3 6.3 0 0 1-2.018-2.607 6.249 6.249 0 0 1-.418-3.258c.455-2.41 2.726-5.398 7.951-5.398 4.052 0 6.587 2.258 6.36 4.066a1.967 1.967 0 0 1-.597 1.315c-.358.348-.837.55-1.338.565Zm18.544-3.148h-4.916l-2.38 13.332c-.509 2.762-.1 4.013 1.417 4.013.809 0 2.08-.45 3.898-2.303l.099 1.952a8.83 8.83 0 0 1-2.999 2.28 8.918 8.918 0 0 1-3.687.832c-3.444 0-5.17-2.41-4.352-6.873l2.38-13.233h-3.843l.3-2.06h3.879l1.018-5.965h5.67l-1.064 5.964h4.916l-.336 2.061Z" fill="#9C9C9C"/></g><defs><clipPath id="a"><path fill="#fff" d="M0 0h195v34H0z"/></clipPath></defs></svg>